PathFileType	4	(X/Y/Z)	OpenSim_Sub03_CSStiffKnee_Magnet.trc
DataRate	CameraRate	NumFrames	NumMarkers	Units	OrigDataRate	OrigDataStartFrame	OrigNumFrames
100	100	30	8	m	100	1819	3637
Frame#	Time	torso_imu_offset_imu	pelvis_imu_offset_imu	tibia_r_imu_offset_imu	femur_r_imu_offset_imu	tibia_l_imu_offset_imu	femur_l_imu_offset_imu	toes_r_imu_offset_imu	toes_l_imu_offset_imu
				X1	Y1	Z1	X2	Y2	Z2	X3	Y3	Z3	X4	Y4	Z4	X5	Y5	Z5	X6	Y6	Z6	X7	Y7	Z7	X8		Y8	Z8	

1819	18.18000000	-0.89282200	-0.19213900	0.28613300	-0.65576200	0.08471700	-0.69897500	-0.59375000	-0.57885700	0.08667000	-0.64257800	-0.64233400	0.01733400	-0.57885700	0.57714800	0.20117200	-0.71362300	0.38549800	0.27807600	-0.70141600	-0.18920900	-0.36572300	-0.80053700	-0.11108400	-0.30542000
1820	18.19000000	-0.88427700	-0.18774400	0.29467800	-0.65576200	0.08471700	-0.69897500	-0.59155300	-0.58105500	0.08007800	-0.63403300	-0.64843800	0.00610400	-0.58740200	0.56616200	0.19751000	-0.72436500	0.37231400	0.28271500	-0.69897500	-0.19726600	-0.36352500	-0.78222700	-0.12207000	-0.31420900
1821	18.20000000	-0.89086900	-0.18359400	0.29443400	-0.65576200	0.08471700	-0.69653300	-0.58496100	-0.58935500	0.07592800	-0.62719700	-0.66284200	0.01123000	-0.60473600	0.54834000	0.19189500	-0.73266600	0.35693400	0.28076200	-0.70117200	-0.19921900	-0.36547900	-0.77294900	-0.12841800	-0.33667000
1822	18.21000000	-0.88891600	-0.18164100	0.29663100	-0.65991200	0.08056600	-0.70336900	-0.58300800	-0.58715800	0.06933600	-0.62280300	-0.66699200	0.00683600	-0.62207000	0.52856400	0.19067400	-0.73437500	0.34375000	0.27636700	-0.70092800	-0.20141600	-0.36547900	-0.75683600	-0.13916000	-0.34106400
1823	18.22000000	-0.88256800	-0.17504900	0.30078100	-0.65527300	0.07202100	-0.70092800	-0.58081100	-0.58935500	0.07153300	-0.61865200	-0.67309600	0.01171900	-0.62622100	0.51318400	0.18261700	-0.74267600	0.33056600	0.28320300	-0.69677700	-0.20532200	-0.37377900	-0.74096700	-0.14794900	-0.35229500
1824	18.23000000	-0.88476600	-0.17504900	0.31396500	-0.65747100	0.07202100	-0.70092800	-0.58276400	-0.59765600	0.06518600	-0.62036100	-0.68139600	0.00732400	-0.65014600	0.49560500	0.18164100	-0.73974600	0.31127900	0.29028300	-0.70068400	-0.21362300	-0.37988300	-0.73388700	-0.15649400	-0.36572300
1825	18.24000000	-0.88452100	-0.17944300	0.30542000	-0.65747100	0.07202100	-0.70312500	-0.58032200	-0.60376000	0.06298800	-0.60961900	-0.69165000	-0.00146500	-0.65844700	0.47363300	0.18286100	-0.75268600	0.30444300	0.28808600	-0.70263700	-0.21972700	-0.37988300	-0.72045900	-0.15649400	-0.37011700
1826	18.25000000	-0.88916000	-0.17309600	0.31176800	-0.65112300	0.07226600	-0.70312500	-0.57617200	-0.60180700	0.05639600	-0.60327100	-0.68945300	-0.00146500	-0.66918900	0.45825200	0.17919900	-0.75244100	0.29370100	0.29272500	-0.70263700	-0.21752900	-0.37768600	-0.71289100	-0.17382800	-0.37695300
1827	18.26000000	-0.88720700	-0.16674800	0.30493200	-0.65747100	0.07202100	-0.70092800	-0.57812500	-0.60791000	0.05200200	-0.60278300	-0.70605500	-0.00317400	-0.68652300	0.43408200	0.18505900	-0.75415000	0.27612300	0.29516600	-0.70043900	-0.22168000	-0.39013700	-0.70410200	-0.17382800	-0.39257800
1828	18.27000000	-0.88501000	-0.16455100	0.31591800	-0.65966800	0.07006800	-0.70532200	-0.57373000	-0.61206100	0.05004900	-0.59838900	-0.71215800	-0.01196300	-0.69702100	0.41210900	0.18408200	-0.75830100	0.27172900	0.30200200	-0.70214800	-0.23803700	-0.39209000	-0.70166000	-0.17822300	-0.39477500
1829	18.28000000	-0.88501000	-0.16455100	0.31372100	-0.65966800	0.07421900	-0.70092800	-0.57153300	-0.61206100	0.05004900	-0.59423800	-0.71435500	-0.00952100	-0.70971700	0.39013700	0.17846700	-0.76001000	0.25659200	0.31323200	-0.70214800	-0.23999000	-0.39624000	-0.68579100	-0.18457000	-0.41284200
1830	18.29000000	-0.88085900	-0.16455100	0.31372100	-0.66186500	0.07421900	-0.69848600	-0.56518600	-0.61621100	0.04345700	-0.58984400	-0.71850600	-0.01635700	-0.71801800	0.37036100	0.18188500	-0.76416000	0.24780300	0.30883800	-0.70410200	-0.24414100	-0.40234400	-0.67846700	-0.19751000	-0.42163100
1831	18.30000000	-0.88085900	-0.16455100	0.30932600	-0.66186500	0.07617200	-0.70092800	-0.55883800	-0.62036100	0.03466800	-0.58764600	-0.72460900	-0.01611300	-0.73071300	0.34619100	0.17431600	-0.76147500	0.23486300	0.30908200	-0.70581100	-0.25634800	-0.40014600	-0.67382800	-0.20629900	-0.43066400
1832	18.31000000	-0.88745100	-0.16040000	0.30908200	-0.66210900	0.08252000	-0.69653300	-0.55859400	-0.62451200	0.03027300	-0.58105500	-0.73291000	-0.02490200	-0.74145500	0.32836900	0.17529300	-0.77002000	0.23046900	0.30688500	-0.70361300	-0.26025400	-0.40820300	-0.65991200	-0.21704100	-0.44848600
1833	18.32000000	-0.88305700	-0.16455100	0.30932600	-0.66406200	0.07617200	-0.69165000	-0.55444300	-0.62670900	0.02587900	-0.57666000	-0.74096700	-0.03588900	-0.74975600	0.30419900	0.17895500	-0.76538100	0.22387700	0.31372100	-0.70971700	-0.26660200	-0.40625000	-0.65087900	-0.22143600	-0.45532200
1834	18.33000000	-0.88281200	-0.16674800	0.30712900	-0.66845700	0.08032200	-0.69409200	-0.55004900	-0.63305700	0.02172900	-0.57006800	-0.74731400	-0.03344700	-0.75146500	0.28442400	0.17529300	-0.76977500	0.21948200	0.31152300	-0.70947300	-0.27270500	-0.41015600	-0.63696300	-0.22998000	-0.47314500
1835	18.34000000	-0.88720700	-0.16674800	0.30053700	-0.66650400	0.08447300	-0.68505900	-0.54345700	-0.63720700	0.02172900	-0.57006800	-0.75341800	-0.03784200	-0.76196300	0.26464800	0.17431600	-0.76953100	0.21508800	0.30932600	-0.70922900	-0.28076200	-0.41210900	-0.63012700	-0.23217800	-0.47534200
1836	18.35000000	-0.88501000	-0.16870100	0.30053700	-0.67089800	0.08862300	-0.68286100	-0.53906200	-0.64746100	0.01318400	-0.56567400	-0.75952100	-0.03979500	-0.76391600	0.25805700	0.17456100	-0.76953100	0.21093800	0.30932600	-0.71118200	-0.28710900	-0.40161100	-0.62329100	-0.24072300	-0.48657200
1837	18.36000000	-0.88476600	-0.17089800	0.29858400	-0.67529300	0.09082000	-0.68750000	-0.53686500	-0.64965800	0.00659200	-0.56127900	-0.76367200	-0.04663100	-0.77050800	0.24707000	0.17065400	-0.76684600	0.20214800	0.31396500	-0.71313500	-0.29516600	-0.40576200	-0.61181600	-0.24511700	-0.49560500
1838	18.37000000	-0.88476600	-0.17504900	0.29858400	-0.67114300	0.08862300	-0.68042000	-0.51977500	-0.65576200	0.00683600	-0.55908200	-0.76977500	-0.04858400	-0.76123000	0.24047900	0.16870100	-0.76684600	0.20214800	0.32055700	-0.71923800	-0.29736300	-0.41406200	-0.60961900	-0.24511700	-0.50219700
1839	18.38000000	-0.88256800	-0.17504900	0.29199200	-0.67944300	0.08642600	-0.67578100	-0.51757800	-0.66406200	0.00708000	-0.55883800	-0.77392600	-0.04834000	-0.77002000	0.23168900	0.17382800	-0.76684600	0.20214800	0.32055700	-0.72094700	-0.31152300	-0.41186500	-0.60522500	-0.24487300	-0.50439500
1840	18.39000000	-0.88671900	-0.18139600	0.29223600	-0.67773400	0.09277300	-0.67358400	-0.51098600	-0.67041000	0.00293000	-0.55053700	-0.76977500	-0.05322300	-0.77197300	0.22509800	0.16748000	-0.77099600	0.19555700	0.32080100	-0.72509800	-0.31372100	-0.41162100	-0.60717800	-0.24926800	-0.50903300
1841	18.40000000	-0.88452100	-0.18359400	0.28808600	-0.67993200	0.09692400	-0.66699200	-0.50244100	-0.67260700	0.00073200	-0.55053700	-0.77172900	-0.05761700	-0.76977500	0.22949200	0.16943400	-0.76904300	0.19555700	0.31616200	-0.72705100	-0.32202100	-0.41162100	-0.60058600	-0.24707000	-0.51123000
1842	18.41000000	-0.88452100	-0.18359400	0.28149400	-0.68652300	0.10107400	-0.66479500	-0.48754900	-0.68286100	0.00341800	-0.55883800	-0.77392600	-0.06225600	-0.77197300	0.22729500	0.17163100	-0.77563500	0.19995100	0.32299800	-0.73535200	-0.32421900	-0.40332000	-0.60302700	-0.24047900	-0.50683600
1843	18.42000000	-0.89062500	-0.19213900	0.27514600	-0.68872100	0.10327100	-0.66015600	-0.48095700	-0.68920900	0.00122100	-0.55273400	-0.76757800	-0.06933600	-0.76782200	0.23608400	0.17358400	-0.76440400	0.19360400	0.31835900	-0.73071300	-0.33422900	-0.40112300	-0.60717800	-0.24951200	-0.50219700
1844	18.43000000	-0.89062500	-0.19213900	0.26635700	-0.69116200	0.11352500	-0.64648400	-0.46386700	-0.70166000	-0.00048800	-0.55908200	-0.76562500	-0.07397500	-0.76757800	0.23168900	0.17602500	-0.76220700	0.19360400	0.32519500	-0.74096700	-0.34472700	-0.39892600	-0.60717800	-0.25170900	-0.49536100
1845	18.44000000	-0.89257800	-0.19848600	0.26220700	-0.68920900	0.11572300	-0.64672900	-0.45532200	-0.70800800	-0.00244100	-0.55493200	-0.76342800	-0.08081100	-0.76562500	0.23828100	0.17334000	-0.76440400	0.19580100	0.32080100	-0.74292000	-0.35083000	-0.39038100	-0.61645500	-0.24292000	-0.48877000
1846	18.45000000	-0.89233400	-0.20263700	0.25561500	-0.70019500	0.12402300	-0.63525400	-0.43627900	-0.71826200	0.00244100	-0.55908200	-0.76147500	-0.08789100	-0.75903300	0.24267600	0.18432600	-0.75805700	0.20019500	0.32299800	-0.74682600	-0.35717800	-0.37793000	-0.62963900	-0.24536100	-0.46850600
1847	18.46000000	-0.89453100	-0.20483400	0.25366200	-0.70239300	0.12182600	-0.63281200	-0.41918900	-0.72460900	-0.00634800	-0.56762700	-0.75732400	-0.09936500	-0.75683600	0.24707000	0.19067400	-0.76245100	0.20214800	0.32739300	-0.74877900	-0.36743200	-0.36523400	-0.65210000	-0.24804700	-0.44165000
1848	18.47000000	-0.89648400	-0.20703100	0.24707000	-0.70263700	0.13647500	-0.63354500	-0.40429700	-0.73291000	0.00073200	-0.57421900	-0.74902300	-0.11132800	-0.75488300	0.25805700	0.19458000	-0.75610400	0.21093800	0.32495100	-0.75683600	-0.37377900	-0.34643600	-0.66357400	-0.23706100	-0.42602500
